# Blender v2.79 (sub 0) OBJ File: 'SpaceShip.blend'
# www.blender.org
mtllib Ship.mtl
o Cube
v -0.250000 0.067829 -0.162708
v 0.250000 -0.000083 -0.310087
v -0.250000 0.078870 -0.162708
v 0.140158 0.045154 -0.310087
v 1.071029 -0.000083 -0.201446
v 1.071029 0.045154 -0.201446
v 0.580505 -0.235701 -0.779820
v 0.470663 -0.190464 -0.779820
v -0.250000 0.078870 -0.162708
v 0.140158 0.045154 -0.310087
v 0.470663 -0.190464 -0.779820
v -0.250000 0.128016 -0.126901
v 0.250000 0.246503 -0.139082
v 0.938364 0.113079 -0.054744
v -0.093190 -0.000083 -0.310087
v -0.093190 0.045154 -0.310087
v 0.237315 -0.235701 -0.779820
v 0.237315 -0.190464 -0.779820
v -0.093190 0.045154 -0.310087
v 0.237315 -0.190464 -0.779820
v -0.093190 0.246503 -0.163386
v 0.580505 -0.235701 -0.864356
v 0.470663 -0.190464 -0.864356
v 0.237315 -0.235701 -0.864356
v 0.237315 -0.190464 -0.864356
v 0.580505 -0.235701 -0.779820
v 0.580474 -0.190464 -0.779820
v 0.580505 -0.235701 -0.864356
v 0.580474 -0.190464 -0.864356
v 0.580499 -0.227214 -0.795679
v 0.580480 -0.198950 -0.795679
v 0.580499 -0.227214 -0.848497
v 0.580480 -0.198950 -0.848497
v 0.918251 -0.226981 -0.795679
v 0.918231 -0.198716 -0.795679
v 0.918251 -0.226980 -0.848497
v 0.918231 -0.198716 -0.848497
v 0.918245 -0.218987 -0.810617
v 0.918237 -0.206710 -0.810617
v 0.918245 -0.218987 -0.833559
v 0.918237 -0.206710 -0.833559
v 0.986471 -0.218940 -0.810617
v 0.986462 -0.206663 -0.810617
v 0.986471 -0.218940 -0.833559
v 0.986462 -0.206663 -0.833559
v 0.192615 0.141312 -0.240027
v 1.007672 0.077593 -0.131385
v -0.250000 0.102341 -0.145608
v -0.093190 0.141312 -0.240027
v 0.407560 0.124508 -0.211376
v 0.431534 0.211316 -0.134735
v 0.385645 0.045154 -0.281436
v 0.466520 -0.000083 -0.281437
v -0.250000 0.067829 0.162708
v 0.250000 -0.000083 0.310087
v 0.250000 -0.000083 -0.000000
v -0.250000 0.067829 0.000000
v -0.250000 0.078870 0.162708
v 0.140158 0.045154 0.310087
v -0.250000 0.078870 0.000000
v 1.071029 -0.000083 0.201446
v 1.345928 -0.000083 -0.000000
v 1.071029 0.045154 0.201446
v 1.345928 0.045154 -0.000000
v 0.580505 -0.235701 0.779820
v 0.470663 -0.190464 0.779820
v -0.250000 0.078870 0.162708
v 0.140158 0.045154 0.310087
v 0.470663 -0.190464 0.779820
v -0.250000 0.128016 0.126901
v 0.250000 0.246503 0.139082
v 0.250000 0.246503 -0.000000
v -0.250000 0.128016 0.000000
v 0.938364 0.113079 0.054744
v 1.213263 0.113079 -0.000000
v -0.093190 -0.000083 0.310087
v -0.093190 -0.000083 0.000000
v -0.093190 0.045154 0.310087
v 0.237315 -0.235701 0.779820
v 0.237315 -0.190464 0.779820
v -0.093190 0.045154 0.310087
v 0.237315 -0.190464 0.779820
v -0.093190 0.246503 0.163386
v -0.093190 0.246503 0.000000
v 0.580505 -0.235701 0.864356
v 0.470663 -0.190464 0.864356
v 0.237315 -0.235701 0.864356
v 0.237315 -0.190464 0.864356
v 0.580505 -0.235701 0.779820
v 0.580474 -0.190464 0.779820
v 0.580505 -0.235701 0.864356
v 0.580474 -0.190464 0.864356
v 0.580499 -0.227214 0.795679
v 0.580480 -0.198950 0.795679
v 0.580499 -0.227214 0.848497
v 0.580480 -0.198950 0.848497
v 0.918251 -0.226981 0.795679
v 0.918232 -0.198716 0.795679
v 0.918251 -0.226980 0.848497
v 0.918232 -0.198716 0.848497
v 0.918246 -0.218987 0.810616
v 0.918237 -0.206710 0.810616
v 0.918246 -0.218987 0.833559
v 0.918237 -0.206710 0.833559
v 0.986471 -0.218940 0.810616
v 0.986462 -0.206663 0.810616
v 0.986471 -0.218940 0.833559
v 0.986462 -0.206663 0.833559
v -0.250000 0.102341 0.000000
v 0.192615 0.141312 0.240027
v 1.007672 0.077593 0.131385
v -0.250000 0.102341 0.145608
v 1.282571 0.077593 -0.000000
v -0.093190 0.141312 0.240027
v 0.407560 0.124508 0.211376
v 0.431534 0.211316 0.134735
v 0.425164 0.237123 -0.000000
v 0.539016 -0.000083 -0.000000
v 0.385645 0.045154 0.281436
v 0.466520 -0.000083 0.281437
vn 0.0000 -1.0000 0.0000
vn -0.5349 0.4976 -0.6829
vn -0.8178 0.0000 -0.5754
vn -1.0000 0.0000 -0.0000
vn 0.5911 0.0000 -0.8066
vn 0.1312 0.0000 -0.9914
vn 0.3737 0.9074 -0.1922
vn 0.0000 0.8939 -0.4484
vn -0.6849 0.0000 -0.7287
vn 0.0000 0.0000 1.0000
vn 0.0000 1.0000 -0.0000
vn 0.1409 0.6331 -0.7611
vn -0.3974 -0.9176 -0.0000
vn 0.0520 0.6765 -0.7346
vn 0.0000 -0.8939 0.4484
vn -0.6029 0.7978 -0.0000
vn 0.0000 0.0000 -1.0000
vn 1.0000 0.0007 0.0000
vn -0.0007 1.0000 0.0000
vn 0.0007 -1.0000 -0.0000
vn 0.3870 0.7559 -0.5281
vn 0.1508 0.6306 -0.7614
vn 0.0000 0.5889 -0.8082
vn 0.1277 0.2283 -0.9652
vn 0.0450 0.9214 -0.3859
vn 0.1914 0.9656 -0.1759
vn 0.1135 0.2029 -0.9726
vn 0.1505 0.6406 -0.7530
vn 0.1455 0.9414 -0.3043
vn 0.0967 0.5511 -0.8288
vn 0.1116 0.2710 -0.9561
vn 0.0535 0.9986 0.0000
vn -0.5349 0.4976 0.6829
vn -0.8178 0.0000 0.5754
vn 0.5911 0.0000 0.8066
vn 0.1312 0.0000 0.9914
vn 0.3737 0.9074 0.1922
vn 0.0000 0.8939 0.4484
vn -0.6849 0.0000 0.7287
vn 0.1409 0.6331 0.7611
vn 0.0520 0.6765 0.7346
vn 0.0000 -0.8939 -0.4484
vn 0.3870 0.7559 0.5281
vn 0.1508 0.6306 0.7614
vn 0.0000 0.5889 0.8082
vn 0.1277 0.2283 0.9652
vn 0.0450 0.9214 0.3859
vn 0.1914 0.9656 0.1759
vn 0.1135 0.2029 0.9726
vn 0.1505 0.6406 0.7530
vn 0.1455 0.9414 0.3043
vn 0.0967 0.5511 0.8288
vn 0.1116 0.2710 0.9561
vn 0.2138 0.9613 -0.1740
vn 0.3298 0.6442 -0.6901
vn 0.1170 0.9373 -0.3282
vn 0.1226 0.7786 -0.6154
vn 0.0725 0.9285 -0.3643
vn 0.2372 0.6053 -0.7598
vn 0.2138 0.9613 0.1740
vn 0.3298 0.6442 0.6901
vn 0.1170 0.9373 0.3282
vn 0.1226 0.7786 0.6154
vn 0.0725 0.9285 0.3643
vn 0.2372 0.6053 0.7598
usemtl Base
s off
f 15//1 56//1 77//1
f 49//2 12//2 21//2
f 15//3 20//3 17//3
f 109//4 12//4 48//4
f 6//5 62//5 5//5
f 1//4 60//4 3//4
f 118//1 5//1 62//1
f 53//6 6//6 5//6
f 18//4 24//4 17//4
f 2//7 8//7 4//7
f 10//8 20//8 19//8
f 1//9 16//9 15//9
f 16//10 10//10 19//10
f 4//10 11//10 10//10
f 84//11 13//11 21//11
f 50//12 13//12 51//12
f 1//13 77//13 57//13
f 46//14 21//14 13//14
f 2//15 17//15 7//15
f 8//10 20//10 11//10
f 3//10 19//10 9//10
f 12//16 84//16 21//16
f 24//17 23//17 22//17
f 7//1 24//1 22//1
f 8//11 29//11 23//11
f 8//11 25//11 18//11
f 27//18 33//18 29//18
f 8//10 26//10 27//10
f 22//10 29//10 28//10
f 7//10 28//10 26//10
f 31//19 37//19 33//19
f 26//18 31//18 27//18
f 29//18 32//18 28//18
f 26//18 32//18 30//18
f 37//18 39//18 41//18
f 32//20 34//20 30//20
f 31//10 34//10 35//10
f 33//17 36//17 32//17
f 39//19 45//19 41//19
f 34//18 39//18 35//18
f 36//18 41//18 40//18
f 36//18 38//18 34//18
f 43//18 44//18 45//18
f 41//17 44//17 40//17
f 38//20 44//20 42//20
f 38//10 43//10 39//10
f 3//2 49//2 16//2
f 60//4 48//4 3//4
f 6//21 113//21 64//21
f 52//22 46//22 50//22
f 4//23 49//23 46//23
f 2//24 52//24 53//24
f 52//25 47//25 6//25
f 56//1 53//1 118//1
f 13//26 117//26 51//26
f 15//1 2//1 56//1
f 49//2 48//2 12//2
f 15//3 19//3 20//3
f 109//4 73//4 12//4
f 6//5 64//5 62//5
f 1//4 57//4 60//4
f 118//1 53//1 5//1
f 53//27 52//27 6//27
f 18//4 25//4 24//4
f 2//7 7//7 8//7
f 10//8 11//8 20//8
f 1//9 3//9 16//9
f 16//10 4//10 10//10
f 4//10 8//10 11//10
f 84//11 72//11 13//11
f 50//28 46//28 13//28
f 1//13 15//13 77//13
f 46//23 49//23 21//23
f 2//15 15//15 17//15
f 8//10 18//10 20//10
f 3//10 16//10 19//10
f 12//16 73//16 84//16
f 24//17 25//17 23//17
f 7//1 17//1 24//1
f 8//11 27//11 29//11
f 8//11 23//11 25//11
f 27//18 31//18 33//18
f 8//10 7//10 26//10
f 22//17 23//17 29//17
f 7//10 22//10 28//10
f 31//19 35//19 37//19
f 26//18 30//18 31//18
f 29//18 33//18 32//18
f 26//18 28//18 32//18
f 37//18 35//18 39//18
f 32//20 36//20 34//20
f 31//10 30//10 34//10
f 33//17 37//17 36//17
f 39//19 43//19 45//19
f 34//18 38//18 39//18
f 36//18 37//18 41//18
f 36//18 40//18 38//18
f 43//18 42//18 44//18
f 41//17 45//17 44//17
f 38//20 40//20 44//20
f 38//10 42//10 43//10
f 3//2 48//2 49//2
f 60//4 109//4 48//4
f 6//29 47//29 113//29
f 52//30 4//30 46//30
f 4//23 16//23 49//23
f 2//31 4//31 52//31
f 52//22 50//22 47//22
f 56//1 2//1 53//1
f 13//32 72//32 117//32
f 76//1 77//1 56//1
f 114//33 83//33 70//33
f 76//34 79//34 82//34
f 109//4 112//4 70//4
f 63//35 61//35 62//35
f 54//4 58//4 60//4
f 118//1 62//1 61//1
f 120//36 61//36 63//36
f 80//4 79//4 87//4
f 55//37 59//37 66//37
f 68//38 81//38 82//38
f 54//39 76//39 78//39
f 78//10 81//10 68//10
f 59//10 68//10 69//10
f 84//11 83//11 71//11
f 115//40 116//40 71//40
f 54//13 57//13 77//13
f 110//41 71//41 83//41
f 55//42 65//42 79//42
f 66//10 69//10 82//10
f 58//10 67//10 81//10
f 70//16 83//16 84//16
f 87//10 85//10 86//10
f 65//1 85//1 87//1
f 66//11 86//11 92//11
f 66//11 80//11 88//11
f 90//18 92//18 96//18
f 66//17 90//17 89//17
f 85//10 91//10 92//10
f 65//10 89//10 91//10
f 94//19 96//19 100//19
f 89//18 90//18 94//18
f 92//18 91//18 95//18
f 89//18 93//18 95//18
f 100//18 104//18 102//18
f 95//20 93//20 97//20
f 94//17 98//17 97//17
f 96//10 95//10 99//10
f 102//19 104//19 108//19
f 97//18 98//18 102//18
f 99//18 103//18 104//18
f 99//18 97//18 101//18
f 106//18 108//18 107//18
f 104//10 103//10 107//10
f 101//20 105//20 107//20
f 101//17 102//17 106//17
f 58//33 78//33 114//33
f 60//4 58//4 112//4
f 63//43 64//43 113//43
f 119//44 115//44 110//44
f 59//45 110//45 114//45
f 55//46 120//46 119//46
f 119//47 63//47 111//47
f 56//1 118//1 120//1
f 71//48 116//48 117//48
f 76//1 56//1 55//1
f 114//33 70//33 112//33
f 76//34 82//34 81//34
f 109//4 70//4 73//4
f 63//35 62//35 64//35
f 54//4 60//4 57//4
f 118//1 61//1 120//1
f 120//49 63//49 119//49
f 80//4 87//4 88//4
f 55//37 66//37 65//37
f 68//38 82//38 69//38
f 54//39 78//39 58//39
f 78//10 68//10 59//10
f 59//10 69//10 66//10
f 84//11 71//11 72//11
f 115//50 71//50 110//50
f 54//13 77//13 76//13
f 110//45 83//45 114//45
f 55//42 79//42 76//42
f 66//10 82//10 80//10
f 58//10 81//10 78//10
f 70//16 84//16 73//16
f 87//10 86//10 88//10
f 65//1 87//1 79//1
f 66//11 92//11 90//11
f 66//11 88//11 86//11
f 90//18 96//18 94//18
f 66//10 89//10 65//10
f 85//10 92//10 86//10
f 65//10 91//10 85//10
f 94//19 100//19 98//19
f 89//18 94//18 93//18
f 92//18 95//18 96//18
f 89//18 95//18 91//18
f 100//18 102//18 98//18
f 95//20 97//20 99//20
f 94//17 97//17 93//17
f 96//10 99//10 100//10
f 102//19 108//19 106//19
f 97//18 102//18 101//18
f 99//18 104//18 100//18
f 99//18 101//18 103//18
f 106//18 107//18 105//18
f 104//10 107//10 108//10
f 101//20 107//20 103//20
f 101//17 106//17 105//17
f 58//33 114//33 112//33
f 60//4 112//4 109//4
f 63//51 113//51 111//51
f 119//52 110//52 59//52
f 59//45 114//45 78//45
f 55//53 119//53 59//53
f 119//44 111//44 115//44
f 56//1 120//1 55//1
f 71//32 117//32 72//32
usemtl Black
f 117//54 14//54 51//54
f 47//55 75//55 113//55
f 50//56 14//56 47//56
f 117//57 75//57 14//57
f 47//58 14//58 75//58
f 50//59 51//59 14//59
f 117//60 116//60 74//60
f 111//61 113//61 75//61
f 115//62 111//62 74//62
f 117//63 74//63 75//63
f 111//64 75//64 74//64
f 115//65 74//65 116//65
