# Blender v2.79 (sub 0) OBJ File: 'SpaceShip.blend'
# www.blender.org
mtllib Spaceship2.mtl
o Cube
v -0.250000 0.067829 -0.162708
v 0.250000 -0.000083 -0.310087
v -0.250000 0.078870 -0.162708
v 0.140158 0.045154 -0.310087
v 1.071029 -0.000083 -0.201446
v 1.071029 0.045154 -0.201446
v 0.580505 -0.235701 -0.779820
v 0.470663 -0.190464 -0.779820
v -0.250000 0.078870 -0.162708
v 0.140158 0.045154 -0.310087
v 0.470663 -0.190464 -0.779820
v -0.250000 0.128016 -0.126901
v 0.250000 0.246503 -0.139082
v 0.938364 0.113079 -0.054744
v -0.093190 -0.000083 -0.310087
v -0.093190 0.045154 -0.310087
v 0.237315 -0.235701 -0.779820
v 0.237315 -0.190464 -0.779820
v -0.093190 0.045154 -0.310087
v 0.237315 -0.190464 -0.779820
v -0.093190 0.246503 -0.163386
v 0.580505 -0.235701 -0.864356
v 0.470663 -0.190464 -0.864356
v 0.237315 -0.235701 -0.864356
v 0.237315 -0.190464 -0.864356
v 0.580505 -0.235701 -0.779820
v 0.580474 -0.190464 -0.779820
v 0.580505 -0.235701 -0.864356
v 0.580474 -0.190464 -0.864356
v 0.580499 -0.227214 -0.795679
v 0.580480 -0.198950 -0.795679
v 0.580499 -0.227214 -0.848497
v 0.580480 -0.198950 -0.848497
v 0.918251 -0.226981 -0.795679
v 0.918231 -0.198716 -0.795679
v 0.918251 -0.226980 -0.848497
v 0.918231 -0.198716 -0.848497
v 0.918245 -0.218987 -0.810617
v 0.918237 -0.206710 -0.810617
v 0.918245 -0.218987 -0.833559
v 0.918237 -0.206710 -0.833559
v 0.986471 -0.218940 -0.810617
v 0.986462 -0.206663 -0.810617
v 0.986471 -0.218940 -0.833559
v 0.986462 -0.206663 -0.833559
v 0.192615 0.141312 -0.240027
v 1.007672 0.077593 -0.131385
v -0.250000 0.102341 -0.145608
v -0.093190 0.141312 -0.240027
v 0.407560 0.124508 -0.211376
v 0.431534 0.211316 -0.134735
v 0.385645 0.045154 -0.281436
v 0.466520 -0.000083 -0.281437
v -0.250000 0.067829 0.162708
v 0.250000 -0.000083 0.310087
v 0.250000 -0.000083 -0.000000
v -0.250000 0.067829 0.000000
v -0.250000 0.078870 0.162708
v 0.140158 0.045154 0.310087
v -0.250000 0.078870 0.000000
v 1.071029 -0.000083 0.201446
v 1.345928 -0.000083 -0.000000
v 1.071029 0.045154 0.201446
v 1.345928 0.045154 -0.000000
v 0.580505 -0.235701 0.779820
v 0.470663 -0.190464 0.779820
v -0.250000 0.078870 0.162708
v 0.140158 0.045154 0.310087
v 0.470663 -0.190464 0.779820
v -0.250000 0.128016 0.126901
v 0.250000 0.246503 0.139082
v 0.250000 0.246503 -0.000000
v -0.250000 0.128016 0.000000
v 0.938364 0.113079 0.054744
v 1.213263 0.113079 -0.000000
v -0.093190 -0.000083 0.310087
v -0.093190 -0.000083 0.000000
v -0.093190 0.045154 0.310087
v 0.237315 -0.235701 0.779820
v 0.237315 -0.190464 0.779820
v -0.093190 0.045154 0.310087
v 0.237315 -0.190464 0.779820
v -0.093190 0.246503 0.163386
v -0.093190 0.246503 0.000000
v 0.580505 -0.235701 0.864356
v 0.470663 -0.190464 0.864356
v 0.237315 -0.235701 0.864356
v 0.237315 -0.190464 0.864356
v 0.580505 -0.235701 0.779820
v 0.580474 -0.190464 0.779820
v 0.580505 -0.235701 0.864356
v 0.580474 -0.190464 0.864356
v 0.580499 -0.227214 0.795679
v 0.580480 -0.198950 0.795679
v 0.580499 -0.227214 0.848497
v 0.580480 -0.198950 0.848497
v 0.918251 -0.226981 0.795679
v 0.918232 -0.198716 0.795679
v 0.918251 -0.226980 0.848497
v 0.918232 -0.198716 0.848497
v 0.918246 -0.218987 0.810616
v 0.918237 -0.206710 0.810616
v 0.918246 -0.218987 0.833559
v 0.918237 -0.206710 0.833559
v 0.986471 -0.218940 0.810616
v 0.986462 -0.206663 0.810616
v 0.986471 -0.218940 0.833559
v 0.986462 -0.206663 0.833559
v -0.250000 0.102341 0.000000
v 0.192615 0.141312 0.240027
v 1.007672 0.077593 0.131385
v -0.250000 0.102341 0.145608
v 1.282571 0.077593 -0.000000
v -0.093190 0.141312 0.240027
v 0.407560 0.124508 0.211376
v 0.431534 0.211316 0.134735
v 0.425164 0.237123 -0.000000
v 0.539016 -0.000083 -0.000000
v 0.385645 0.045154 0.281436
v 0.466520 -0.000083 0.281437
vn 0.0000 -1.0000 0.0000
vn -0.5349 0.4976 -0.6829
vn -0.8178 0.0000 -0.5754
vn -1.0000 0.0000 -0.0000
vn 0.5911 0.0000 -0.8066
vn 0.1223 0.1094 -0.9864
vn 0.3737 0.9074 -0.1922
vn 0.0000 0.8939 -0.4484
vn -0.6849 0.0000 -0.7287
vn 0.0000 0.0000 1.0000
vn 0.0000 1.0000 -0.0000
vn 0.1465 0.6375 -0.7564
vn -0.3974 -0.9176 -0.0000
vn 0.0297 0.6400 -0.7678
vn 0.0000 -0.8939 0.4484
vn -0.6029 0.7978 -0.0000
vn 0.0000 0.0000 -1.0000
vn 1.0000 0.0007 0.0000
vn -0.0007 1.0000 0.0000
vn 0.0007 -1.0000 -0.0000
vn 0.2377 0.8884 -0.3927
vn 0.1210 0.5875 -0.8001
vn 0.0000 0.5889 -0.8082
vn 0.1191 0.2511 -0.9606
vn 0.1038 0.7922 -0.6014
vn 0.1246 0.9881 -0.0902
vn -0.5349 0.4976 0.6829
vn -0.8178 0.0000 0.5754
vn 0.5911 0.0000 0.8066
vn 0.1223 0.1094 0.9864
vn 0.3737 0.9074 0.1922
vn 0.0000 0.8939 0.4484
vn -0.6849 0.0000 0.7287
vn 0.1465 0.6375 0.7564
vn 0.0297 0.6400 0.7678
vn 0.0000 -0.8939 -0.4484
vn 0.2377 0.8884 0.3927
vn 0.1210 0.5875 0.8001
vn 0.0000 0.5889 0.8082
vn 0.1191 0.2511 0.9606
vn 0.1038 0.7922 0.6014
vn 0.1246 0.9881 0.0902
vn 0.1793 0.9084 -0.3778
vn 0.1663 0.8551 -0.4911
vn 0.1877 0.7941 -0.5781
vn 0.1793 0.9084 0.3778
vn 0.1663 0.8551 0.4911
vn 0.1877 0.7941 0.5781
usemtl Base
s off
f 15//1 2//1 56//1 77//1
f 49//2 48//2 12//2 21//2
f 17//3 15//3 19//3 20//3
f 48//4 109//4 73//4 12//4
f 5//5 6//5 64//5 62//5
f 3//4 1//4 57//4 60//4
f 118//1 53//1 5//1 62//1
f 53//6 52//6 6//6 5//6
f 17//4 18//4 25//4 24//4
f 4//7 2//7 7//7 8//7
f 19//8 10//8 11//8 20//8
f 1//9 3//9 16//9 15//9
f 16//10 4//10 10//10 19//10
f 4//10 8//10 11//10 10//10
f 21//11 84//11 72//11 13//11
f 50//12 46//12 13//12 51//12
f 1//13 15//13 77//13 57//13
f 46//14 49//14 21//14 13//14
f 2//15 15//15 17//15 7//15
f 8//10 18//10 20//10 11//10
f 3//10 16//10 19//10 9//10
f 12//16 73//16 84//16 21//16
f 24//17 25//17 23//17 22//17
f 7//1 17//1 24//1 22//1
f 23//11 8//11 27//11 29//11
f 18//11 8//11 23//11 25//11
f 29//18 27//18 31//18 33//18
f 8//10 7//10 26//10 27//10
f 22//17 23//17 29//17 28//17
f 7//10 22//10 28//10 26//10
f 33//19 31//19 35//19 37//19
f 27//18 26//18 30//18 31//18
f 28//18 29//18 33//18 32//18
f 26//18 28//18 32//18 30//18
f 37//18 35//18 39//18 41//18
f 30//20 32//20 36//20 34//20
f 31//10 30//10 34//10 35//10
f 32//17 33//17 37//17 36//17
f 41//19 39//19 43//19 45//19
f 35//18 34//18 38//18 39//18
f 36//18 37//18 41//18 40//18
f 34//18 36//18 40//18 38//18
f 43//18 42//18 44//18 45//18
f 40//17 41//17 45//17 44//17
f 38//20 40//20 44//20 42//20
f 39//10 38//10 42//10 43//10
f 16//2 3//2 48//2 49//2
f 3//4 60//4 109//4 48//4
f 64//21 6//21 47//21 113//21
f 52//22 4//22 46//22 50//22
f 4//23 16//23 49//23 46//23
f 2//24 4//24 52//24 53//24
f 6//25 52//25 50//25 47//25
f 56//1 2//1 53//1 118//1
f 13//26 72//26 117//26 51//26
f 76//1 77//1 56//1 55//1
f 114//27 83//27 70//27 112//27
f 79//28 82//28 81//28 76//28
f 112//4 70//4 73//4 109//4
f 61//29 62//29 64//29 63//29
f 58//4 60//4 57//4 54//4
f 118//1 62//1 61//1 120//1
f 120//30 61//30 63//30 119//30
f 79//4 87//4 88//4 80//4
f 59//31 66//31 65//31 55//31
f 81//32 82//32 69//32 68//32
f 54//33 76//33 78//33 58//33
f 78//10 81//10 68//10 59//10
f 59//10 68//10 69//10 66//10
f 83//11 71//11 72//11 84//11
f 115//34 116//34 71//34 110//34
f 54//13 57//13 77//13 76//13
f 110//35 71//35 83//35 114//35
f 55//36 65//36 79//36 76//36
f 66//10 69//10 82//10 80//10
f 58//10 67//10 81//10 78//10
f 70//16 83//16 84//16 73//16
f 87//10 85//10 86//10 88//10
f 65//1 85//1 87//1 79//1
f 86//11 92//11 90//11 66//11
f 80//11 88//11 86//11 66//11
f 92//18 96//18 94//18 90//18
f 66//17 90//17 89//17 65//17
f 85//10 91//10 92//10 86//10
f 65//10 89//10 91//10 85//10
f 96//19 100//19 98//19 94//19
f 90//18 94//18 93//18 89//18
f 91//18 95//18 96//18 92//18
f 89//18 93//18 95//18 91//18
f 100//18 104//18 102//18 98//18
f 93//20 97//20 99//20 95//20
f 94//17 98//17 97//17 93//17
f 95//10 99//10 100//10 96//10
f 104//19 108//19 106//19 102//19
f 98//18 102//18 101//18 97//18
f 99//18 103//18 104//18 100//18
f 97//18 101//18 103//18 99//18
f 106//18 108//18 107//18 105//18
f 103//10 107//10 108//10 104//10
f 101//20 105//20 107//20 103//20
f 102//17 106//17 105//17 101//17
f 78//27 114//27 112//27 58//27
f 58//4 112//4 109//4 60//4
f 64//37 113//37 111//37 63//37
f 119//38 115//38 110//38 59//38
f 59//39 110//39 114//39 78//39
f 55//40 120//40 119//40 59//40
f 63//41 111//41 115//41 119//41
f 56//1 118//1 120//1 55//1
f 71//42 116//42 117//42 72//42
usemtl Black
f 51//43 117//43 75//43 14//43
f 113//44 47//44 14//44 75//44
f 47//45 50//45 51//45 14//45
f 116//46 74//46 75//46 117//46
f 113//47 75//47 74//47 111//47
f 111//48 74//48 116//48 115//48
