# Blender v2.79 (sub 0) OBJ File: 'Stars.blend'
# www.blender.org
mtllib Stars2.mtl
o Cube
v 4.000000 0.000000 -2.000000
v 4.000000 0.000000 2.000000
v -4.000000 0.000000 2.000000
v -3.999999 0.000000 -2.000001
v 4.000002 0.000000 -1.999999
v 3.999997 0.000000 2.000001
v -4.000001 0.000000 1.999999
v -4.000000 0.000000 -2.000000
vt 1.000000 0.000000
vt 0.000000 1.000000
vt 0.000000 0.000000
vt 1.000000 0.000000
vt 0.000000 1.000000
vt 0.000000 0.000000
vt 1.000000 0.000000
vt 0.000000 1.000000
vt 1.000000 0.000000
vt 0.000000 1.000000
vt 0.000000 0.000000
vt 0.000000 0.000000
vt 1.000000 1.000000
vt 1.000000 0.000000
vt 0.000000 1.000000
vt 1.000000 1.000000
vt 1.000000 1.000000
vt 1.000000 1.000000
vt 1.000000 0.000000
vt 1.000000 1.000000
vn 0.0000 -1.0000 0.0000
vn 0.0000 1.0000 0.0000
usemtl Material
s off
f 2/1/1 4/2/1 1/3/1
f 8/4/2 6/5/2 5/6/2
f 5/7/1 2/8/1 1/3/1
f 6/9/1 3/10/1 2/11/1
f 3/12/1 8/13/1 4/2/1
f 1/14/2 8/15/2 5/6/2
f 2/1/1 3/16/1 4/2/1
f 8/4/2 7/17/2 6/5/2
f 5/7/2 6/18/2 2/8/2
f 6/9/2 7/17/2 3/10/2
f 3/12/1 7/19/1 8/13/1
f 1/14/2 4/20/2 8/15/2
